<svg xmlns="http://www.w3.org/2000/svg" width="584" height="448" viewBox="0 0 584 448" role="img" aria-labelledby="title">
  <title id="title">Regression Elo leaderboard</title>
  <defs>
    <clipPath id="frame-clip"><rect width="584" height="448" rx="6"/></clipPath>
    <linearGradient id="elo-gradient-0" x1="0%" y1="0%" x2="100%" y2="0%">
      <stop offset="0%" stop-color="#15662c"/>
      <stop offset="100%" stop-color="#1a7f37"/>
    </linearGradient>
    <linearGradient id="elo-gradient-1" x1="0%" y1="0%" x2="100%" y2="0%">
      <stop offset="0%" stop-color="#685608"/>
      <stop offset="100%" stop-color="#826b0a"/>
    </linearGradient>
    <linearGradient id="elo-gradient-2" x1="0%" y1="0%" x2="100%" y2="0%">
      <stop offset="0%" stop-color="#745403"/>
      <stop offset="100%" stop-color="#916904"/>
    </linearGradient>
    <linearGradient id="elo-gradient-3" x1="0%" y1="0%" x2="100%" y2="0%">
      <stop offset="0%" stop-color="#745403"/>
      <stop offset="100%" stop-color="#916904"/>
    </linearGradient>
    <linearGradient id="elo-gradient-4" x1="0%" y1="0%" x2="100%" y2="0%">
      <stop offset="0%" stop-color="#824a06"/>
      <stop offset="100%" stop-color="#a35c08"/>
    </linearGradient>
    <linearGradient id="elo-gradient-5" x1="0%" y1="0%" x2="100%" y2="0%">
      <stop offset="0%" stop-color="#824a06"/>
      <stop offset="100%" stop-color="#a35c08"/>
    </linearGradient>
    <linearGradient id="elo-gradient-6" x1="0%" y1="0%" x2="100%" y2="0%">
      <stop offset="0%" stop-color="#864509"/>
      <stop offset="100%" stop-color="#a7560b"/>
    </linearGradient>
    <linearGradient id="elo-gradient-7" x1="0%" y1="0%" x2="100%" y2="0%">
      <stop offset="0%" stop-color="#89410c"/>
      <stop offset="100%" stop-color="#ab510f"/>
    </linearGradient>
    <linearGradient id="elo-gradient-8" x1="0%" y1="0%" x2="100%" y2="0%">
      <stop offset="0%" stop-color="#8c3d0e"/>
      <stop offset="100%" stop-color="#af4c12"/>
    </linearGradient>
    <linearGradient id="elo-gradient-9" x1="0%" y1="0%" x2="100%" y2="0%">
      <stop offset="0%" stop-color="#8d3c0f"/>
      <stop offset="100%" stop-color="#b04b13"/>
    </linearGradient>
    <linearGradient id="elo-gradient-10" x1="0%" y1="0%" x2="100%" y2="0%">
      <stop offset="0%" stop-color="#923514"/>
      <stop offset="100%" stop-color="#b74219"/>
    </linearGradient>
    <linearGradient id="elo-gradient-11" x1="0%" y1="0%" x2="100%" y2="0%">
      <stop offset="0%" stop-color="#a61b25"/>
      <stop offset="100%" stop-color="#cf222e"/>
    </linearGradient>
  </defs>
  <rect width="584" height="448" rx="6" fill="#ffffff"/>
  <g clip-path="url(#frame-clip)">
    <rect class="elo-bar" x="344" y="40" width="240.000" height="34" fill="url(#elo-gradient-0)"/>
    <rect class="elo-bar" x="344" y="74" width="148.369" height="34" fill="url(#elo-gradient-1)"/>
    <rect class="elo-bar" x="344" y="108" width="135.776" height="34" fill="url(#elo-gradient-2)"/>
    <rect class="elo-bar" x="344" y="142" width="135.697" height="34" fill="url(#elo-gradient-3)"/>
    <rect class="elo-bar" x="344" y="176" width="109.253" height="34" fill="url(#elo-gradient-4)"/>
    <rect class="elo-bar" x="344" y="210" width="109.035" height="34" fill="url(#elo-gradient-5)"/>
    <rect class="elo-bar" x="344" y="244" width="100.518" height="34" fill="url(#elo-gradient-6)"/>
    <rect class="elo-bar" x="344" y="278" width="91.467" height="34" fill="url(#elo-gradient-7)"/>
    <rect class="elo-bar" x="344" y="312" width="82.998" height="34" fill="url(#elo-gradient-8)"/>
    <rect class="elo-bar" x="344" y="346" width="81.929" height="34" fill="url(#elo-gradient-9)"/>
    <rect class="elo-bar" x="344" y="380" width="66.874" height="34" fill="url(#elo-gradient-10)"/>
    <rect class="elo-bar" x="344" y="414" width="15.399" height="34" fill="url(#elo-gradient-11)"/>
  </g>
  <path d="M 1 6 Q 1 1 6 1 H 578 Q 583 1 583 6 V 40 H 1 Z" fill="#f6f8fa"/>
  <g font-family="-apple-system, BlinkMacSystemFont, 'Segoe UI', sans-serif" font-size="14">
    <g fill="#57606a" font-weight="600">
      <text x="48" y="25" text-anchor="end">Rank</text>
      <text x="80" y="25">Method</text>
      <text x="328" y="25" text-anchor="end">Elo</text>
      <text x="360" y="25">Relative Elo (95% min)</text>
    </g>
    <text x="48" y="62" text-anchor="end" fill="#57606a">1</text>
    <text x="80" y="62" fill="#1a7f37" font-weight="700">ASPFM</text>
    <text x="328" y="62" text-anchor="end" fill="#1a7f37" font-weight="700">2334.5</text>
    <text x="48" y="96" text-anchor="end" fill="#57606a">2</text>
    <text x="80" y="96" fill="#826b0a" font-weight="700">TabFM Ensemble</text>
    <text x="328" y="96" text-anchor="end" fill="#826b0a" font-weight="700">1932.8</text>
    <text x="48" y="130" text-anchor="end" fill="#57606a">3</text>
    <text x="80" y="130" fill="#916904" font-weight="700">TabPFN v3</text>
    <text x="328" y="130" text-anchor="end" fill="#916904" font-weight="700">1877.6</text>
    <text x="48" y="164" text-anchor="end" fill="#57606a">4</text>
    <text x="80" y="164" fill="#916904" font-weight="700">TabICL</text>
    <text x="328" y="164" text-anchor="end" fill="#916904" font-weight="700">1877.3</text>
    <text x="48" y="198" text-anchor="end" fill="#57606a">5</text>
    <text x="80" y="198" fill="#a35c08" font-weight="700">catboost</text>
    <text x="328" y="198" text-anchor="end" fill="#a35c08" font-weight="700">1761.4</text>
    <text x="48" y="232" text-anchor="end" fill="#57606a">6</text>
    <text x="80" y="232" fill="#a35c08" font-weight="700">Fable 5</text>
    <text x="328" y="232" text-anchor="end" fill="#a35c08" font-weight="700">1760.4</text>
    <text x="48" y="266" text-anchor="end" fill="#57606a">7</text>
    <text x="80" y="266" fill="#a7560b" font-weight="700">stacking_trees_meta</text>
    <text x="328" y="266" text-anchor="end" fill="#a7560b" font-weight="700">1723.1</text>
    <text x="48" y="300" text-anchor="end" fill="#57606a">8</text>
    <text x="80" y="300" fill="#ab510f" font-weight="700">gaussian_process</text>
    <text x="328" y="300" text-anchor="end" fill="#ab510f" font-weight="700">1683.4</text>
    <text x="48" y="334" text-anchor="end" fill="#57606a">9</text>
    <text x="80" y="334" fill="#af4c12" font-weight="700">Grok 4.5</text>
    <text x="328" y="334" text-anchor="end" fill="#af4c12" font-weight="700">1646.3</text>
    <text x="48" y="368" text-anchor="end" fill="#57606a">10</text>
    <text x="80" y="368" fill="#b04b13" font-weight="700">gradient_boosting</text>
    <text x="328" y="368" text-anchor="end" fill="#b04b13" font-weight="700">1641.6</text>
    <text x="48" y="402" text-anchor="end" fill="#57606a">15</text>
    <text x="80" y="402" fill="#b74219" font-weight="700">OpenAI *sol</text>
    <text x="328" y="402" text-anchor="end" fill="#b74219" font-weight="700">1575.6</text>
    <text x="48" y="436" text-anchor="end" fill="#57606a">45</text>
    <text x="80" y="436" fill="#cf222e" font-weight="700">Kimi K3</text>
    <text x="328" y="436" text-anchor="end" fill="#cf222e" font-weight="700">1350.0</text>
  </g>
  <path d="M 1 40 H 583" stroke="#d0d7de"/>
  <path d="M 1 74 H 583" stroke="#d0d7de"/>
  <path d="M 1 108 H 583" stroke="#d0d7de"/>
  <path d="M 1 142 H 583" stroke="#d0d7de"/>
  <path d="M 1 176 H 583" stroke="#d0d7de"/>
  <path d="M 1 210 H 583" stroke="#d0d7de"/>
  <path d="M 1 244 H 583" stroke="#d0d7de"/>
  <path d="M 1 278 H 583" stroke="#d0d7de"/>
  <path d="M 1 312 H 583" stroke="#d0d7de"/>
  <path d="M 1 346 H 583" stroke="#d0d7de"/>
  <path d="M 1 380 H 583" stroke="#d0d7de"/>
  <path d="M 1 414 H 583" stroke="#d0d7de"/>
  <rect width="584" height="448" rx="6" fill="none" stroke="#d0d7de"/>
</svg>
